<svg viewBox="0 0 512 512" xmlns="http://www.w3.org/2000/svg"><path d="M299.35 86.7v338.76c93.55 0 169.38-75.83 169.38-169.38S392.89 86.7 299.35 86.7z" fill="#F2E7BF"/><circle cx="367.23" cy="327.81" r="37.16" opacity=".08"/><path d="M315.68 409.12c-5.51 0-10.96-.27-16.34-.79v17.13c50.93 0 96.61-22.49 127.66-58.06a168.72 168.72 0 0 1-111.32 41.72z" opacity=".08"/><path d="M288.33 6.36l-59.69 103.4h70.71V0a12.6 12.6 0 0 0-11.02 6.36z" fill="#E18C36"/><path d="M114.98 87.3l30.9 115.3 100-100-115.31-30.9a12.72 12.72 0 0 0-15.59 15.6z" fill="#EC8560"/><path d="M49.63 267.09l103.4 59.69V185.36l-103.4 59.69a12.72 12.72 0 0 0 0 22.04z" fill="#E18C36"/><path d="M130.56 440.44l115.31-30.9-100-100-30.9 115.31a12.72 12.72 0 0 0 15.59 15.59z" fill="#EC8560"/><path d="M228.64 402.4l59.69 103.39a12.56 12.56 0 0 0 8.9 6.19 1.82 1.82 0 0 0 2.12-1.79V402.4h-70.71z" fill="#E18C36"/><path d="M140.03 180.79l5.84 21.81 92.61-92.6a169.65 169.65 0 0 0-98.45 70.79z" opacity=".1"/><path d="M129.68 198.84a168.67 168.67 0 0 0-17.48 75c0 10.6.98 20.96 2.84 31.01l37.98 21.93V185.36l-23.34 13.48z" opacity=".1"/><path d="M145.88 309.54l-12.45 46.45a170.17 170.17 0 0 0 66 66l46.45-12.45-100-100z" opacity=".1"/><path d="M228.64 402.4l21.93 37.98a170.3 170.3 0 0 0 48.78 1.9V402.4h-70.71z" opacity=".1"/><path d="M129.96 256.08c0 93.55 75.84 169.38 169.38 169.38V86.69c-93.55 0-169.38 75.83-169.38 169.38z" fill="#F7D64C"/><g fill="#394049"><path d="M320.56 283.38a29.29 29.29 0 0 1-21.21-9.08 29.3 29.3 0 0 1-21.22 9.08 29.4 29.4 0 0 1-29.37-29.37 8.16 8.16 0 1 1 16.32 0 13.07 13.07 0 0 0 26.1 0 8.16 8.16 0 1 1 16.33 0c0 7.2 5.85 13.05 13.05 13.05s13.05-5.86 13.05-13.05a8.16 8.16 0 1 1 16.32 0 29.4 29.4 0 0 1-29.37 29.37zM201.37 230.48a8.16 8.16 0 0 1-8.16-8.16v-9.01a8.16 8.16 0 1 1 16.32 0v9.01c0 4.5-3.65 8.16-8.16 8.16zM397.32 230.48a8.16 8.16 0 0 1-8.16-8.16v-9.01a8.16 8.16 0 1 1 16.32 0v9.01c0 4.5-3.65 8.16-8.16 8.16z"/></g></svg>
