<?xml version="1.0" encoding="UTF-8" standalone="no"?><svg xmlns="http://www.w3.org/2000/svg" xmlns:xlink="http://www.w3.org/1999/xlink" xml:space="preserve" width="256" height="256" version="1.1" viewBox="0 0 67.73 67.73"><defs><linearGradient id="b"><stop offset="0" stop-color="#eaeaf8" stop-opacity="1"/><stop offset=".31" stop-color="#e1e1f7" stop-opacity="1"/><stop offset=".48" stop-color="#9c9ccc" stop-opacity="1"/><stop offset=".78" stop-color="#39398b" stop-opacity="1"/><stop offset="1" stop-color="#9292bc" stop-opacity="1"/></linearGradient><linearGradient id="d"><stop offset="0" stop-color="#ded0f3" stop-opacity="1"/><stop offset=".4" stop-color="#c56af6" stop-opacity="1"/><stop offset=".84" stop-color="#4727de" stop-opacity=".5"/><stop offset="1" stop-color="#6c2bda" stop-opacity="0"/></linearGradient><linearGradient id="c"><stop offset="0" stop-color="#ded0f3" stop-opacity="1"/><stop offset=".4" stop-color="#c56af6" stop-opacity="1"/><stop offset=".84" stop-color="#4727de" stop-opacity=".5"/><stop offset="1" stop-color="#6c2bda" stop-opacity="0"/></linearGradient><linearGradient id="e"><stop offset="0" stop-color="#ded0f3" stop-opacity="1"/><stop offset=".4" stop-color="#c56af6" stop-opacity="1"/><stop offset=".84" stop-color="#4727de" stop-opacity=".5"/><stop offset="1" stop-color="#6c2bda" stop-opacity="0"/></linearGradient><linearGradient id="f"><stop offset="0" stop-color="#ded0f3" stop-opacity="1"/><stop offset=".4" stop-color="#c56af6" stop-opacity="1"/><stop offset=".84" stop-color="#4727de" stop-opacity=".5"/><stop offset="1" stop-color="#6c2bda" stop-opacity="0"/></linearGradient><linearGradient id="g"><stop offset="0" stop-color="#ded0f3" stop-opacity="1"/><stop offset=".4" stop-color="#c56af6" stop-opacity="1"/><stop offset=".84" stop-color="#4727de" stop-opacity=".5"/><stop offset="1" stop-color="#6c2bda" stop-opacity="0"/></linearGradient><linearGradient id="h"><stop offset="0" stop-color="#ded0f3" stop-opacity="1"/><stop offset=".4" stop-color="#c56af6" stop-opacity="1"/><stop offset=".84" stop-color="#4727de" stop-opacity=".5"/><stop offset="1" stop-color="#6c2bda" stop-opacity="0"/></linearGradient><linearGradient id="k"><stop offset="0" stop-color="#ded0f3" stop-opacity="1"/><stop offset=".4" stop-color="#c56af6" stop-opacity="1"/><stop offset=".84" stop-color="#4727de" stop-opacity=".5"/><stop offset="1" stop-color="#6c2bda" stop-opacity="0"/></linearGradient><linearGradient id="i"><stop offset="0" stop-color="#ded0f3" stop-opacity="1"/><stop offset=".4" stop-color="#c56af6" stop-opacity="1"/><stop offset=".84" stop-color="#4727de" stop-opacity=".5"/><stop offset="1" stop-color="#6c2bda" stop-opacity="0"/></linearGradient><linearGradient id="m"><stop offset="0" stop-color="#ded0f3" stop-opacity="1"/><stop offset=".4" stop-color="#c56af6" stop-opacity="1"/><stop offset=".84" stop-color="#4727de" stop-opacity=".5"/><stop offset="1" stop-color="#6c2bda" stop-opacity="0"/></linearGradient><linearGradient id="j"><stop offset="0" stop-color="#ded0f3" stop-opacity="1"/><stop offset=".4" stop-color="#c56af6" stop-opacity="1"/><stop offset=".84" stop-color="#4727de" stop-opacity=".5"/><stop offset="1" stop-color="#6c2bda" stop-opacity="0"/></linearGradient><linearGradient id="n"><stop offset="0" stop-color="#ded0f3" stop-opacity="1"/><stop offset=".4" stop-color="#c56af6" stop-opacity="1"/><stop offset=".84" stop-color="#4727de" stop-opacity=".5"/><stop offset="1" stop-color="#6c2bda" stop-opacity="0"/></linearGradient><linearGradient id="q"><stop offset="0" stop-color="#ded0f3" stop-opacity="1"/><stop offset=".4" stop-color="#c56af6" stop-opacity="1"/><stop offset=".84" stop-color="#4727de" stop-opacity=".5"/><stop offset="1" stop-color="#6c2bda" stop-opacity="0"/></linearGradient><linearGradient id="l"><stop offset="0" stop-color="#ded0f3" stop-opacity="1"/><stop offset=".4" stop-color="#c56af6" stop-opacity="1"/><stop offset=".84" stop-color="#4727de" stop-opacity=".5"/><stop offset="1" stop-color="#6c2bda" stop-opacity="0"/></linearGradient><linearGradient id="o"><stop offset="0" stop-color="#ded0f3" stop-opacity="1"/><stop offset=".4" stop-color="#c56af6" stop-opacity="1"/><stop offset=".84" stop-color="#4727de" stop-opacity=".5"/><stop offset="1" stop-color="#6c2bda" stop-opacity="0"/></linearGradient><linearGradient id="p"><stop offset="0" stop-color="#ded0f3" stop-opacity="1"/><stop offset=".4" stop-color="#c56af6" stop-opacity="1"/><stop offset=".84" stop-color="#4727de" stop-opacity=".5"/><stop offset="1" stop-color="#6c2bda" stop-opacity="0"/></linearGradient><linearGradient id="s"><stop offset="0" stop-color="#ded0f3" stop-opacity="1"/><stop offset=".4" stop-color="#c56af6" stop-opacity="1"/><stop offset=".84" stop-color="#4727de" stop-opacity=".5"/><stop offset="1" stop-color="#6c2bda" stop-opacity="0"/></linearGradient><linearGradient id="r"><stop offset="0" stop-color="#ded0f3" stop-opacity="1"/><stop offset=".4" stop-color="#c56af6" stop-opacity="1"/><stop offset=".84" stop-color="#4727de" stop-opacity=".5"/><stop offset="1" stop-color="#6c2bda" stop-opacity="0"/></linearGradient><linearGradient id="u"><stop offset="0" stop-color="#ded0f3" stop-opacity="1"/><stop offset=".4" stop-color="#c56af6" stop-opacity="1"/><stop offset=".84" stop-color="#4727de" stop-opacity=".5"/><stop offset="1" stop-color="#6c2bda" stop-opacity="0"/></linearGradient><linearGradient id="t"><stop offset="0" stop-color="#ded0f3" stop-opacity="1"/><stop offset=".4" stop-color="#c56af6" stop-opacity="1"/><stop offset=".84" stop-color="#4727de" stop-opacity=".5"/><stop offset="1" stop-color="#6c2bda" stop-opacity="0"/></linearGradient><linearGradient id="a"><stop offset="0" stop-color="#fff" stop-opacity="1"/><stop offset=".45" stop-color="#dfdff1" stop-opacity="1"/><stop offset=".76" stop-color="#b0b6de" stop-opacity="1"/><stop offset=".86" stop-color="#777bdf" stop-opacity="1"/><stop offset=".96" stop-color="#3a3b8d" stop-opacity="1"/><stop offset="1" stop-color="#000" stop-opacity="1"/></linearGradient><linearGradient xlink:href="#a" id="v" x1="0" x2="0" y1="-8" y2="29" gradientUnits="userSpaceOnUse" spreadMethod="pad"/><linearGradient xlink:href="#b" id="w" x1="28.05" x2="40.86" y1="35.54" y2="35.54" gradientUnits="userSpaceOnUse"/><radialGradient xlink:href="#c" id="G" cx="21.95" cy="23.59" r="1.73" fx="21.95" fy="23.59" gradientTransform="matrix(1.696 -.045 .067 2.517 -16.96 -35.49)" gradientUnits="userSpaceOnUse"/><radialGradient xlink:href="#d" id="A" cx="24.73" cy="25.27" r="1.73" fx="24.73" fy="25.27" gradientTransform="matrix(2.013 -.085 .077 1.82 -25.06 -16.88)" gradientUnits="userSpaceOnUse"/><radialGradient xlink:href="#e" id="F" cx="24.62" cy="23.27" r="1.73" fx="24.62" fy="23.27" gradientTransform="matrix(1.107 -.208 .282 1.503 -7.4 -8.04)" gradientUnits="userSpaceOnUse"/><radialGradient xlink:href="#f" id="L" cx="23.29" cy="21.55" r="1.73" fx="23.29" fy="21.55" gradientTransform="matrix(1.705 -.24 .193 1.375 -19.89 -6.35)" gradientUnits="userSpaceOnUse"/><radialGradient xlink:href="#g" id="P" cx="24.68" cy="20.28" r="1.73" fx="24.68" fy="20.28" gradientTransform="matrix(.86 -.116 .088 .657 3.12 4.38)" gradientUnits="userSpaceOnUse"/><radialGradient xlink:href="#h" id="K" cx="25.89" cy="21.44" r="1.73" fx="25.89" fy="21.44" gradientTransform="matrix(1.603 -.369 .333 1.447 -20.23 -4.23)" gradientUnits="userSpaceOnUse"/><radialGradient xlink:href="#i" id="R" cx="27.33" cy="19.64" r="1.73" fx="27.33" fy="19.64" gradientTransform="matrix(2.117 -.424 .283 1.416 -32.74 -3.53)" gradientUnits="userSpaceOnUse"/><radialGradient xlink:href="#j" id="O" cx="28.25" cy="20.71" r="1.73" fx="28.25" fy="20.71" gradientTransform="matrix(.803 .007 -.008 .912 9.8 -3.71)" gradientUnits="userSpaceOnUse"/><radialGradient xlink:href="#k" id="E" cx="27.45" cy="23.94" r="1.73" fx="27.45" fy="23.94" gradientTransform="matrix(1.303 -.05 .058 1.497 -5.97 -10.94)" gradientUnits="userSpaceOnUse"/><radialGradient xlink:href="#l" id="J" cx="29.12" cy="22.18" r="1.73" fx="29.12" fy="22.18" gradientTransform="matrix(2.42 -.143 .107 1.808 -38.94 -16.9)" gradientUnits="userSpaceOnUse"/><radialGradient xlink:href="#m" id="Q" cx="31.09" cy="19.61" r="1.73" fx="31.09" fy="19.61" gradientTransform="matrix(2.054 .231 -.166 1.473 -23.53 -23.62)" gradientUnits="userSpaceOnUse"/><radialGradient xlink:href="#n" id="N" cx="30.14" cy="20.71" r="1.73" fx="30.14" fy="20.71" gradientTransform="matrix(1.104 -.027 .02 .816 1.84 -.6)" gradientUnits="userSpaceOnUse"/><radialGradient xlink:href="#o" id="D" cx="30.44" cy="24.04" r="1.73" fx="30.44" fy="24.04" gradientTransform="matrix(1.187 -.004 .006 1.542 0 -13.3)" gradientUnits="userSpaceOnUse"/><radialGradient xlink:href="#p" id="I" cx="32.36" cy="21.55" r="1.73" fx="32.36" fy="21.55" gradientTransform="matrix(1.541 -.244 .217 1.372 -15.2 -4.38)" gradientUnits="userSpaceOnUse"/><radialGradient xlink:href="#q" id="M" cx="33.67" cy="20.55" r="1.73" fx="33.67" fy="20.55" gradientTransform="matrix(.89 -.107 .096 .796 9.59 1.97)" gradientUnits="userSpaceOnUse"/><radialGradient xlink:href="#r" id="C" cx="33.24" cy="23.38" r="1.73" fx="33.24" fy="23.38" gradientTransform="matrix(1.503 -.124 .105 1.273 -11.45 -3.8)" gradientUnits="userSpaceOnUse"/><radialGradient xlink:href="#s" id="H" cx="34.99" cy="21.7" r="1.73" fx="34.99" fy="21.7" gradientTransform="matrix(1.066 -.657 .927 1.505 -13.59 7.87)" gradientUnits="userSpaceOnUse"/><radialGradient xlink:href="#t" id="z" cx="33.01" cy="25.22" r="1.73" fx="33.01" fy="25.22" gradientTransform="matrix(1.933 -.131 .139 2.044 -26.65 -20.7)" gradientUnits="userSpaceOnUse"/><radialGradient xlink:href="#u" id="B" cx="35.94" cy="23.83" r="1.73" fx="35.94" fy="23.83" gradientTransform="matrix(1.498 -.154 .232 2.257 -13.8 -25.37)" gradientUnits="userSpaceOnUse"/><filter id="x" width="1.05" height="1.09" x="-.02" y="-.04" color-interpolation-filters="sRGB"><feFlood flood-color="rgb(16,17,104)" flood-opacity=".7" in="SourceGraphic" result="flood"/><feGaussianBlur in="SourceGraphic" result="blur" stdDeviation=".4"/><feOffset dx="0" dy=".4" in="blur" preserveAlpha="false" result="offset"/><feComposite in="flood" in2="offset" operator="in" result="comp1"/><feComposite in="SourceGraphic" in2="comp1" k1="2.05" k2="5.09" k3="1.78" k4="-5.99" operator="over" result="comp2"/></filter><mask id="y" maskUnits="userSpaceOnUse"><path fill="#fff" fill-opacity="1" d="M-32.14 29.87V1.3L-12.3-8.75 7.55 1.3v28.57Z" display="inline" opacity="1" paint-order="normal" style="mix-blend-mode:normal" transform="translate(46.16 12.46)"/></mask></defs><g display="inline"><path fill="url(#v)" stroke="#000" stroke-dasharray="none" stroke-linejoin="round" stroke-miterlimit="0" stroke-width="2.65" d="M-10.52-7.87 7.8 1.3v40.75l-18.31 8.67a4.19 4.19 0 0 1-3.59 0l-18.31-8.67V1.3l18.33-9.17a3.97 3.97 0 0 1 3.55 0z" display="inline" opacity="1" paint-order="normal" style="mix-blend-mode:normal" transform="translate(46.16 12.46)"/><g stroke-width=".26"><path fill="url(#w)" d="M28.05 29.03h12.8v13.02h-12.8Z" display="inline"/><path fill="#000" fill-opacity="1" d="M32.65 29.94c.8-.1 2.3 1.1 2.98 1.77a4.51 4.51 0 0 1 1.4 2.83c.04.42 0 4.88 0 6.05a.3.3 0 0 1-.3.3c-.73.03-2.68.1-3.78.1-1.12 0-3.15-.09-3.88-.12a.28.28 0 0 1-.27-.28l-.01-9.49c-.02-.4.7-.5.89-.52.19-.02.78.02.78.19v6.92s.13.8.73.67c.6-.11.68-.66.68-.66s.08-1.68.01-2.22c-.07-.53-.11-.97-.14-1.62-.03-.64 0-2.63 0-2.63s.03-1.2.91-1.3c.88-.08 0 0 0 0zm6.4.9c.24-.15.66.2.66.4-.06 3.51.02 8.88 0 9.43 0 .2-.31.37-.52.37-.2 0-.47-.12-.53-.31-.05-.14-.08-1.45 0-2.4.04-.43.12-.98.13-1.82 0-.85-.1-.61-.17-1.46-.06-.86.02-1.89.01-3.17 0-.54.16-.88.41-1.03zm-11.48-1.32v7.1c0 .08-.14 1.06-.33 1.27a.89.89 0 0 1-.4.2c-.15.04-.9.02-.9.02l.01-7.4c-.54-1.42-1.07-1.03-1.59-.36 0 1.49-.1 6.72-.1 7.32 0 .6-.51.92-.9.9-.53-.04-.82-.79-.81-1.32 0-.53.04-7.47 0-8.1-.07-.9-1.02-1.03-1.37-.32 0 .23.05 10.03.04 10.4 0 .4.08 1.07-.14 1.43-.2.3-.59.4-1.03.37a.84.84 0 0 1-.7-.65c-.06-3.15.03-5.94-.05-8.64-.02-.4-.26-.85-.8-.82a.54.54 0 0 0-.47.47c-.04.3.09 4.98 0 5.38-.08.36-.34.53-.67.56a.8.8 0 0 1-.71-.28c-.31-.31-.33-.83-.63-1.16-.3-.4-2.09-.38-2.09-.38v8.28h39.78v-7.9c0-1.02.08-1.6-.29-1.67-.27-.04-.61 1.53-.61 1.53-.12.6-.42.96-.53 1.05-.3.23-.5.27-.85.27a.63.63 0 0 1-.64-.6l.02-17.1c0-.44-.38-.55-.7-.53-.28.06-.58.27-.6.6-.01.43.01 13.3-.03 17.67 0 .5-.13.9-.27 1.1-.2.3-.66.42-.93.39-.23-.03-.6-.37-.64-.67 0-1.82-.12-9.44-.11-10.71-.57-.02-.98.44-1.21 1.41v11.8c-.1.4-.53.6-1.03.6-.7 0-.92-1.02-.92-1.49.03-1.14-.17-1.9-.17-2.58v-7.04c-.55-.63-.87-.33-1.08.5 0 0 .01 5.02-.01 7.26 0 .56-.65.74-1.04.75-.38 0-.87-.18-.93-.47-.02-1.86-.02-8.96-.02-8.96z" display="inline" filter="url(#x)" mask="url(#y)" paint-order="normal"/><path fill="#000" fill-opacity="1" d="M19.38 27.5c-.67-.95-1.01-4.45.12-5.96.12-.17.3-.43.37-.62 1.81-4.97 5.94-9.15 11.12-10.36.26-.06.68-.1.95-.1.87.04 1.37.17 1.86.6.1.1.28.11.4.03.54-.4 1.09-.6 1.66-.67.38-.06.98.02 1.34.14 3.83 1.25 8.7 4.62 9.95 9.23.06.21.2.53.31.72a7.01 7.01 0 0 1 .1 7.68 6 6 0 0 1-1.93 1.02c-.33.1-.82.33-1.1.54-2.3 1.75-3.76 1.59-5.2 1.37-.45-.07-1.17-.22-1.6-.34-2.63-.74-5.25-1.44-7.99-.32-1.75.65-4.3 1.24-5.56-.04a4.71 4.71 0 0 0-.93-.92 2.22 2.22 0 0 0-.89-.24c-1.9-.25-2.74-1.52-2.98-1.76Z" paint-order="normal"/><g fill-opacity="1"><path fill="url(#z)" d="M39.3 26.01c.65-.45 1.54-.42 2.54-.18.18.04.47.14.59.28.15.18.24.44.3.75l.08.65c.04.39.06.76.05 1.08 0 .2-.12.48-.25.63-.18.22-.32.35-.44.45-.18.14-.54.26-.78.29-.54.06-1 .03-1.37-.12-.17-.07-.4-.25-.54-.36a2.59 2.59 0 0 1-1-1.53 1.5 1.5 0 0 1 .24-1.18l.18-.29c.09-.15.26-.37.4-.47z" display="inline" opacity="1" stop-color="#000" stop-opacity="1" style="font-variation-settings:normal;-inkscape-stroke:none" vector-effect="none"/><path fill="url(#A)" d="M25.23 26.07a.8.8 0 0 1 .41-.22c.2-.04.52-.07.71-.1.92-.1 1.74-.15 2.36 1.01.1.18.24.48.3.67.13.34.15.66.05.93-.08.2-.28.47-.38.65-.21.35-.45.58-.67.83a1.3 1.3 0 0 1-.67.36 3.2 3.2 0 0 1-1.35-.06c-.25-.09-.62-.33-.85-.47-.4-.25-.72-.54-.86-.96a2.1 2.1 0 0 1-.09-.71c.02-.51.2-.96.59-1.34.15-.15.3-.44.45-.59z" opacity="1" stop-color="#000" stop-opacity="1" style="font-variation-settings:normal;-inkscape-stroke:none" vector-effect="none"/><path fill="url(#B)" d="M46.11 21.49c.88.16.99.75 1.04 1.38.01.13.1.32.17.43.44.58.4 1.09.24 1.73l-.15.73c-.09.45-.24.75-.42.95-.1.1-.32.22-.46.25-.49.13-.85.08-1.12-.11a3.55 3.55 0 0 1-.47-.48 2.84 2.84 0 0 1-.8-1.46l-.08-.55a3.58 3.58 0 0 1 .15-2.12c.07-.17.26-.37.42-.46.2-.13.43-.24.66-.3.22-.06.6-.04.82 0z" display="inline" opacity="1" stop-color="#000" stop-opacity="1" style="font-variation-settings:normal;-inkscape-stroke:none" vector-effect="none"/><path fill="url(#C)" d="M41.35 21c.52.12.9.33 1.02.72.05.14.06.38.09.52.06.27.13.56.02.86-.08.19-.33.43-.5.56-.32.25-.57.32-.8.35-.17.03-.45.04-.62.01-.57-.08-.85-.34-1-.67-.05-.1-.1-.27-.11-.38-.05-.25-.1-.5.04-.84.06-.15.17-.38.25-.52.22-.4.55-.66.98-.7.18 0 .46.04.63.08z" display="inline" opacity="1" stop-color="#000" stop-opacity="1" style="font-variation-settings:normal;-inkscape-stroke:none" vector-effect="none"/><path fill="url(#D)" d="M35.27 23.2c.25-.18.52-.3.8-.38.18-.05.5-.06.68-.02.34.1.58.3.72.62.09.2.2.52.26.72.17.53.14 1.08-.2 1.7-.08.15-.3.26-.48.28-.48.06-.92.2-1.57-.18a1.34 1.34 0 0 1-.41-.42 2.08 2.08 0 0 1-.16-1.82c.05-.17.21-.4.36-.5z" display="inline" opacity="1" stop-color="#000" stop-opacity="1" style="font-variation-settings:normal;-inkscape-stroke:none" vector-effect="none"/><path fill="url(#E)" d="M29.74 23.38c.37-.6.7-.78 1.06-.82.18-.02.5 0 .68.04.48.1.72.42.89.8.07.14.12.41.12.58v.9c0 .23-.12.58-.3.75-.21.22-.37.33-.51.39-.25.1-.69.1-.95.06-.42-.09-.69-.26-.85-.56a1.8 1.8 0 0 1-.17-.57c-.08-.46-.1-.98.03-1.57z" opacity="1" stop-color="#000" stop-opacity="1" style="font-variation-settings:normal;-inkscape-stroke:none" vector-effect="none"/><path fill="url(#F)" d="M25.84 24.05c-.38-.13-.57-.43-.67-.81-.05-.18-.08-.47-.1-.65-.05-.36-.07-.7.24-1.03a5 5 0 0 1 .51-.4c.18-.09.38-.14.57-.2.14-.03.39-.06.54-.03.46.1.73.38.77.87.05.42.08.8.1 1.17.02.28-.12.68-.34.84-.38.28-.67.32-.94.32-.2 0-.5-.02-.68-.08z" display="inline" opacity="1" stop-color="#000" stop-opacity="1" style="font-variation-settings:normal;-inkscape-stroke:none" vector-effect="none"/><path fill="url(#G)" d="M20.38 25.71c-.3-.81-.38-1.6-.32-2.38.25-.98.7-1.66 1.47-1.89.46-.05.87.01 1.22.16.76.75.69 1.41.74 2.09.02 1.1.03 2.17-.24 3-.11.23-.26.43-.42.47-.62.46-1.1.2-1.56-.08a3.8 3.8 0 0 1-.9-1.37z" display="inline"/><path fill="url(#H)" d="M45.15 20.05c-.32.03-.65.06-1.03-.02-.53-.23-1-.53-1.34-.94a.9.9 0 0 1-.18-.45c-.05-.4-.06-.87-.03-1.66a.35.35 0 0 1 .28-.3c.65-.1 1.25-.2 2.13.96.8 1.06.64 1.68.53 2.1-.04.16-.2.3-.36.31z" display="inline" opacity="1" stop-color="#000" stop-opacity="1" style="font-variation-settings:normal;-inkscape-stroke:none" vector-effect="none"/><path fill="url(#I)" d="M37.9 18.88a6.33 6.33 0 0 1-.03-1.71c.3-.63.73-.84 1.19-.95.17-.04.44.01.6.1.34.18.63.29.87.37a.4.4 0 0 1 .24.36c0 .26 0 .55.1.78.22.66.07 1.14-.3 1.52-.1.11-.31.2-.46.21a7.6 7.6 0 0 1-1.32.03.75.75 0 0 1-.33-.12 1.92 1.92 0 0 1-.56-.59z" display="inline" opacity="1" stop-color="#000" stop-opacity="1" style="font-variation-settings:normal;-inkscape-stroke:none" vector-effect="none"/><path fill="url(#J)" d="M35.13 18.15c.39.18.58.45.78.72.12.16.25.45.27.66.06.7-.06 1.07-.2 1.43-.07.21-.22.56-.38.73-.37.42-.78.5-1.2.51-.2 0-.52.01-.71-.02a2.94 2.94 0 0 1-1.07-.42c-.2-.11-.54-.28-.69-.45a1.8 1.8 0 0 1-.25-.43 4.25 4.25 0 0 1-.15-1.62.95.95 0 0 1 .2-.38c.13-.15.21-.33.3-.55a.66.66 0 0 1 .38-.4c.6-.16 1.43-.21 2.02-.05.2.06.35.14.35.14z" display="inline" opacity="1" stop-color="#000" stop-opacity="1" style="font-variation-settings:normal;-inkscape-stroke:none" vector-effect="none"/><path fill="url(#K)" d="M26.75 18.72a12.1 12.1 0 0 1-.02-1.7c.01-.14.14-.28.28-.32.25-.06.46-.11.6-.2.12-.08.29-.23.44-.24.66-.06 1.27.16 1.8.82.11.14.23.4.25.57.1.63-.06 1.12-.4 1.5-.14.16-.44.32-.64.37-.56.13-1.14.1-1.72 0a.87.87 0 0 1-.33-.12.6.6 0 0 1-.23-.39l-.03-.3z" display="inline" opacity="1" stop-color="#000" stop-opacity="1" style="font-variation-settings:normal;-inkscape-stroke:none" vector-effect="none"/><path fill="url(#L)" d="M22.16 19.82c-.21-.54-.03-1.3.09-1.65a.94.94 0 0 1 .22-.34c.23-.22.44-.49.56-.87.03-.1.14-.24.24-.27.52-.15.97-.1 1.42-.03.1.02.23.08.3.16.3.42.3 1.14.19 1.94a.88.88 0 0 1-.17.39 2.8 2.8 0 0 1-2.37.96c-.17 0-.41-.13-.48-.29z" display="inline" opacity="1" stop-color="#000" stop-opacity="1" style="font-variation-settings:normal;-inkscape-stroke:none" vector-effect="none"/><path fill="url(#M)" d="M42.56 15.24c.05.38-.03.55-.14.65a.9.9 0 0 1-.44.18c-.46.05-.82-.04-1.08-.28a.63.63 0 0 1-.15-.34 5.46 5.46 0 0 1 .03-1.3c0-.06.08-.12.15-.12a1.68 1.68 0 0 1 1.56.89z" display="inline" opacity="1" stop-color="#000" stop-opacity="1" style="font-variation-settings:normal;-inkscape-stroke:none" vector-effect="none"/><path fill="url(#N)" d="M34.47 15.68c.01-.49.29-.7.68-.82.18-.05.5-.05.68 0 .47.14.67.38.78.66.06.16.09.43.05.6a.98.98 0 0 1-.35.63 1.73 1.73 0 0 1-.97.14c-.13-.02-.25-.14-.3-.25a1.82 1.82 0 0 0-.3-.38c-.12-.14-.27-.39-.27-.58z" display="inline" opacity="1" stop-color="#000" stop-opacity="1" style="font-variation-settings:normal;-inkscape-stroke:none" vector-effect="none"/><path fill="url(#O)" d="M31.93 14.8c.57-.1 1.24.34 1.44 1.01-.01.74-.32.97-.67 1.12-.54.04-1.05.01-1.36-.57-.2-.62.04-1.46.59-1.56z" display="inline" opacity="1" stop-color="#000" stop-opacity="1" style="font-variation-settings:normal;-inkscape-stroke:none" vector-effect="none"/><path fill="url(#P)" d="M25.38 14.76c.17-.19.37-.35.66-.45a.96.96 0 0 1 .53-.02c.3.09.39.3.46.56.03.12.04.33 0 .46-.08.28-.26.52-.52.73a.99.99 0 0 1-.52.18h-.28a.77.77 0 0 1-.48-.29c-.15-.23-.14-.45-.05-.79a1 1 0 0 1 .2-.38z" display="inline" opacity="1" stop-color="#000" stop-opacity="1" style="font-variation-settings:normal;-inkscape-stroke:none" vector-effect="none"/><path fill="url(#Q)" d="M35.06 12.04c.2-.16.46-.28.79-.35a2.9 2.9 0 0 1 1.03.02c.9.2 1.67.48 2.1.97.2.22.38.66.42.95.05.38-.06.65-.2.89a1 1 0 0 1-.83.49 6.17 6.17 0 0 1-2.4-.68c-.2-.1-.54-.23-.76-.3-.28-.08-.44-.18-.51-.42a2.58 2.58 0 0 1 .04-1.06c.04-.17.18-.4.32-.51z" opacity="1" stop-color="#000" stop-opacity="1" style="font-variation-settings:normal;-inkscape-stroke:none" vector-effect="none"/><path fill="url(#R)" d="M28.8 12.69a5.93 5.93 0 0 1 1.84-.9c.25-.08.66-.12.91-.07.53.08 1.19.23 1.6.8.15.19.26.58.21.83-.05.26-.2.51-.4.76a.54.54 0 0 1-.32.16c-.14 0-.27 0-.4-.02a.58.58 0 0 0-.53.17c-.26.3-.48.4-.75.43-.13.01-.3.1-.37.2-.22.29-.4.4-.57.46-.22.08-.63.08-.84-.03-.53-.28-.6-1.03-.58-2.32a.7.7 0 0 1 .2-.47z" display="inline" opacity="1" stop-color="#000" stop-opacity="1" style="font-variation-settings:normal;-inkscape-stroke:none" vector-effect="none"/></g></g><path fill="#fcfcfe" d="M19.92 45.65h-3.3v.86l.22.02c.61.09.73.23.72.9v3.65c0 .66-.1.8-.72.88l-.21.03v.86h2.9V52l-.22-.03c-.6-.08-.73-.22-.72-.88v-3.75l1.83 5.52h1.14l1.85-5.45v3.68c.01.66-.1.8-.72.88l-.21.03v.86h3.71V52l-.2-.03c-.62-.08-.74-.22-.73-.88v-3.66c0-.66.1-.8.72-.89l.21-.02v-.86h-3.3l-1.51 4.5Zm11.26-.14c-2.27 0-3.92 1.6-3.92 3.8 0 1.25.47 2.21 1.41 2.92.7.52 1.44.76 2.37.76 2.28 0 4-1.64 4-3.8 0-1.17-.4-2.08-1.23-2.77-.7-.6-1.62-.91-2.63-.91zm0 1.08c1.14 0 1.82.97 1.82 2.62 0 1.61-.75 2.7-1.87 2.7-.52 0-1.03-.25-1.32-.65a3.65 3.65 0 0 1-.52-1.98c0-1.6.77-2.7 1.9-2.7zm11.78 3.74-.73-.38c-.71 1.27-1.65 1.95-2.7 1.95-.32 0-.54-.07-.6-.2-.05-.09-.05-.09-.05-.76v-3.52c0-.66.1-.8.72-.89l.21-.02v-.86H36.1v.86l.21.02c.62.09.73.23.72.9v3.65c.01.66-.1.8-.72.88l-.21.03v.86h5.76zm.44-3.82.21.02c.62.09.73.23.72.9v3.65c.01.66-.1.8-.72.88l-.2.03v.86H47c1.72 0 2.54-.28 3.26-1.14.55-.63.84-1.47.84-2.43 0-1.17-.4-2.13-1.19-2.8-.77-.68-1.36-.83-3.15-.83H43.4zm2.79.65c0-.45.15-.56.76-.56 1.32 0 2.12.98 2.12 2.6 0 1.65-.85 2.7-2.18 2.7-.27 0-.5-.05-.6-.14-.1-.07-.1-.1-.1-.61z" aria-label="MOLD" font-family="URW Bookman" font-size="10.58" font-weight="600" letter-spacing=".53" style="line-height:0;-inkscape-font-specification:&quot;URW Bookman Semi-Bold&quot;"/></g></svg>