<svg viewBox="0 0 64 64" xmlns="http://www.w3.org/2000/svg">
    <g data-name="DAy 02">
        <path d="M41.2 42a54.8 54.8 0 0 1-2.7 17h-13a55 55 0 0 1 0-34h13a54.8 54.8 0 0 1 2.7 17z"
              data-name="&lt;Path&gt;" fill="#8a9fc1"/>
        <path d="M37.2 42a54.8 54.8 0 0 1-2.7 17h-9a55 55 0 0 1 0-34h9a54.8 54.8 0 0 1 2.7 17z" data-name="&lt;Path&gt;"
              fill="#b0c1e2"/>
        <circle cx="26.5" cy="42.5" data-name="&lt;Path&gt;" fill="#323be0" r="1.5"/>
        <circle cx="25.5" cy="53.5" data-name="&lt;Path&gt;" fill="#323be0" r="2.5"/>
        <circle cx="36" cy="46" data-name="&lt;Path&gt;" fill="#323be0" r="2"/>
        <path d="M41.2 42a54.8 54.8 0 0 1-2.7 17h-13a55 55 0 0 1 0-34h13a54.8 54.8 0 0 1 2.7 17z"
              data-name="&lt;Path&gt;" fill="none" stroke="#001c63" stroke-linecap="round" stroke-linejoin="round"
              stroke-width="2"/>
        <path d="M41.2 42l-4 .6-3.2.4-1-5-2 3-8.2 1a54.8 54.8 0 0 1 2.7-17h13a54.8 54.8 0 0 1 2.7 17z"
              data-name="&lt;Path&gt;" fill="#7488a3"/>
        <path d="M37.2 42v.6L34 43l-1-5-2 3-8.2 1a54.8 54.8 0 0 1 2.7-17h9a54.8 54.8 0 0 1 2.7 17z"
              data-name="&lt;Path&gt;" fill="#94a6c4"/>
        <circle cx="24" cy="36" data-name="&lt;Path&gt;" fill="#323be0" r="2"/>
        <path d="M41.2 42L34 43l-1-5-2 3-8.2 1a54.9 54.9 0 0 1 2.7-17h13a54.8 54.8 0 0 1 2.7 17z"
              data-name="&lt;Path&gt;" fill="none" stroke="#001c63" stroke-linecap="round" stroke-linejoin="round"
              stroke-width="2"/>
        <path d="M58 30H7c2.8-1.6 4.3-5 6.2-8.6s4-7.7 7.8-10.4a17.8 17.8 0 0 1 8.4-2.9h1L32 8h1.5c10 .4 14.5 5.2 17.5 10.4 1.2 2 2.2 4.3 3.1 6.2C55.2 27 56.4 29 58 30z"
              data-name="&lt;Path&gt;" fill="#6c73f4"/>
        <path d="M54 30H7c2.8-1.6 4.3-5 6.2-8.6s4-7.7 7.8-10.4a17.8 17.8 0 0 1 8.4-2.9l1 .2c1.2 0 2.4-.3 3.5.7 7 1 10.6 5.3 13 9.6 1.2 2.1 2.2 4.2 3.1 6.1 1.3 2.4 2.4 4.2 4 5.3z"
              data-name="&lt;Path&gt;" fill="#323be0"/>
        <path d="M54 30H14c2.8-1.6 4.3-5 6.2-8.6s4-7.5 7.8-10.1A10.5 10.5 0 0 1 34 9c7 1 10.5 5.3 13 9.6 1.2 2.1 2.1 4.2 3 6.1 1.3 2.4 2.4 4.2 4 5.3z"
              data-name="&lt;Path&gt;" fill="#4c4eff"/>
        <path d="M24 16.5a6.5 6.5 0 0 1-10.8 4.9c1.8-3.7 4-7.7 7.8-10.4a6.5 6.5 0 0 1 3 5.5z" data-name="&lt;Path&gt;"
              fill="#7782ed"/>
        <ellipse cx="40.5" cy="16" data-name="&lt;Path&gt;" fill="#7782ed" rx="3.5" ry="3"/>
        <path d="M39 29.5a2.7 2.7 0 0 1 0 .5H25a2.7 2.7 0 0 1 0-.5c0-3 3.1-5.5 7-5.5s7 2.5 7 5.5z"
              data-name="&lt;Path&gt;" fill="#7782ed"/>
        <path d="M54.1 24.6a3.4 3.4 0 0 1-1.6.4 3.5 3.5 0 0 1-1.5-6.6c1.2 2 2.2 4.3 3.1 6.2z" data-name="&lt;Path&gt;"
              fill="#9ca8ff"/>
        <path d="M34 9.5a2.5 2.5 0 1 1-4.6-1.4L32 8h1.5a2.5 2.5 0 0 1 .5 1.5z" data-name="&lt;Path&gt;" fill="#7782ed"/>
        <circle cx="17" cy="27" data-name="&lt;Path&gt;" fill="#7782ed" r="2"/>
        <path d="M58 30c-6.3-4.3-5.3-22.1-26-22-18.7.1-17.6 17.8-25 22zM16 45s-.2 13.4 9 14M12 51a16.4 16.4 0 0 0 13 8"
              data-name="&lt;Path&gt;" fill="none" stroke="#001c63" stroke-linecap="round" stroke-linejoin="round"
              stroke-width="2"/>
        <path d="M20 44a6.5 6.5 0 0 1 0 1h-8a6.5 6.5 0 0 1 0-1 5 5 0 0 1 3-4.8 3.3 3.3 0 0 1 1-.2c2.2 0 4 2.2 4 5z"
              data-name="&lt;Path&gt;" fill="#fc9e5e"/>
        <path d="M18 44a6.5 6.5 0 0 1 0 1h-6a6.5 6.5 0 0 1 0-1 5 5 0 0 1 3-4.8 5 5 0 0 1 3 4.8z"
              data-name="&lt;Path&gt;" fill="#ef8e45"/>
        <circle cx="14" cy="42" data-name="&lt;Path&gt;" fill="#ff001a" r="1"/>
        <circle cx="16.5" cy="41.5" data-name="&lt;Path&gt;" fill="#ff001a" r=".5"/>
        <circle cx="18" cy="44" data-name="&lt;Path&gt;" fill="#ff001a" r="1"/>
        <path d="M20 44a6.5 6.5 0 0 1 0 1h-8a6.5 6.5 0 0 1 0-1c0-2.8 1.8-5 4-5s4 2.2 4 5zM51 47.3a4.9 4.9 0 0 1 0 .7h-6a4.9 4.9 0 0 1 0-.8c0-2 1.3-3.7 3-3.7s3 1.7 3 3.8z"
              data-name="&lt;Path&gt;" fill="none" stroke="#001c63" stroke-linecap="round" stroke-linejoin="round"
              stroke-width="2"/>
        <path d="M51 47.3a4.9 4.9 0 0 1 0 .7h-6a4.9 4.9 0 0 1 0-.8c0-2 1.3-3.7 3-3.7s3 1.7 3 3.8z"
              data-name="&lt;Path&gt;" fill="none" stroke="#001c63" stroke-linecap="round" stroke-linejoin="round"
              stroke-width="2"/>
        <path d="M51 47.3a4.9 4.9 0 0 1 0 .7h-6a4.9 4.9 0 0 1 0-.8c0-2 1.3-3.7 3-3.7s3 1.7 3 3.8z"
              data-name="&lt;Path&gt;" fill="none" stroke="#001c63" stroke-linecap="round" stroke-linejoin="round"
              stroke-width="2"/>
        <path d="M51 47.3a4.9 4.9 0 0 1 0 .7h-6a4.9 4.9 0 0 1 0-.8c0-2 1.3-3.7 3-3.7s3 1.7 3 3.8z"
              data-name="&lt;Path&gt;" fill="#ef8e45"/>
        <path d="M51 47.3a4.6 4.6 0 0 1 0 .7h-6a4.6 4.6 0 0 1 0-.8 3.8 3.8 0 0 1 2-3.5 2.4 2.4 0 0 1 1-.2c1.7 0 3 1.7 3 3.8z"
              data-name="&lt;Path&gt;" fill="#fc9e5e"/>
        <path d="M49 47.3a4.6 4.6 0 0 1 0 .7h-4a4.6 4.6 0 0 1 0-.8 3.8 3.8 0 0 1 2-3.5 3.8 3.8 0 0 1 2 3.5z"
              data-name="&lt;Path&gt;" fill="#ef8e45"/>
        <circle cx="46" cy="45" data-name="&lt;Path&gt;" fill="#ff001a" r="1"/>
        <circle cx="48.5" cy="44.5" data-name="&lt;Path&gt;" fill="#ff001a" r=".5"/>
        <circle cx="50" cy="47" data-name="&lt;Path&gt;" fill="#ff001a" r="1"/>
        <path d="M51 47.3a4.9 4.9 0 0 1 0 .7h-6a4.9 4.9 0 0 1 0-.8c0-2 1.3-3.7 3-3.7s3 1.7 3 3.8z"
              data-name="&lt;Path&gt;" fill="none" stroke="#001c63" stroke-linecap="round" stroke-linejoin="round"
              stroke-width="2"/>
        <path d="M14 50.4a4 4 0 0 1 0 .6H9a4 4 0 0 1 0-.6c0-1.7 1.1-3.1 2.5-3.1s2.5 1.4 2.5 3z" data-name="&lt;Path&gt;"
              fill="#4c4eff"/>
        <path d="M14 50.4a4 4 0 0 1 0 .6H9a4 4 0 0 1 0-.6c0-1.7 1.1-3.1 2.5-3.1s2.5 1.4 2.5 3z" data-name="&lt;Path&gt;"
              fill="none" stroke="#001c63" stroke-linecap="round" stroke-linejoin="round" stroke-width="2"/>
        <g data-name="&lt;Group&gt;">
            <path d="M55 58c-3 0-3-2-6-2s-3 2-6 2-3-2-6-2" data-name="&lt;Path&gt;" fill="none" stroke="#001c63"
                  stroke-linecap="round" stroke-linejoin="round" stroke-width="2"/>
        </g>
        <g data-name="&lt;Group&gt;">
            <path d="M45 24c0-3 2-3 2-6s-2-3-2-6 2-3 2-6" data-name="&lt;Path&gt;" fill="none" stroke="#c713ec"
                  stroke-linecap="round" stroke-linejoin="round" stroke-width="2"/>
        </g>
        <g data-name="&lt;Group&gt;">
            <path d="M50 24c0-2 2-2 2-4s-2-2-2-4 2-2 2-4" data-name="&lt;Path&gt;" fill="none" stroke="#c713ec"
                  stroke-linecap="round" stroke-linejoin="round" stroke-width="2"/>
        </g>
        <g data-name="&lt;Group&gt;">
            <path d="M39 19c0-2 2-2 2-4s-2-2-2-4 2-2 2-4" data-name="&lt;Path&gt;" fill="none" stroke="#c713ec"
                  stroke-linecap="round" stroke-linejoin="round" stroke-width="2"/>
        </g>
        <path data-name="&lt;Path&gt;" fill="none" stroke="#001c63" stroke-linecap="round" stroke-linejoin="round"
              stroke-width="2" d="M48 56v-8"/>
    </g>
</svg>
