<?xml version="1.0" encoding="iso-8859-1"?>
<!-- Generator: Adobe Illustrator 19.0.0, SVG Export Plug-In . SVG Version: 6.00 Build 0)  -->
<svg height="512" width="512" version="1.1" id="Capa_1" xmlns="http://www.w3.org/2000/svg" xmlns:xlink="http://www.w3.org/1999/xlink" x="0px" y="0px"
	 viewBox="0 0 368 368" style="enable-background:new 0 0 368 368;" xml:space="preserve">
<path style="fill:#CCE4FF;" d="M232,242.72V328c0,17.68-14.32,32-32,32h-32c-17.68,0-32-14.32-32-32v-85.28V152h96V242.72z"/>
<path style="fill:#007AFF;" d="M184,0C82.536,0,0,82.544,0,184c0,27.744,6.304,46.872,19.28,58.488
	c21.104,18.872,54.648,15.128,97.168,10.384c3.736-0.416,7.68-0.824,11.544-1.24V328c0,22.056,17.944,40,40,40h32
	c22.056,0,40-17.944,40-40v-76.376c3.864,0.416,7.808,0.824,11.544,1.24c18.048,2.016,34.488,3.848,49.032,3.848
	c19.728,0,36-3.368,48.144-14.232C361.696,230.872,368,211.744,368,184C368,82.544,285.464,0,184,0z M224,328
	c0,13.232-10.768,24-24,24h-32c-13.232,0-24-10.768-24-24v-85.28V160h80v82.72V328z M338.048,230.56
	c-15.768,14.096-46.192,10.704-84.72,6.4c-4.36-0.488-8.808-0.984-13.328-1.464V160h8c13.232,0,24,10.768,24,24c0,4.416,3.576,8,8,8
	s8-3.584,8-8c0-22.056-17.944-40-40-40h-16h-96h-16c-22.056,0-40,17.944-40,40c0,4.416,3.576,8,8,8s8-3.584,8-8
	c0-13.232,10.768-24,24-24h8v75.504c-4.52,0.48-8.968,0.976-13.328,1.464c-38.512,4.304-68.952,7.696-84.72-6.4
	C20.56,222.16,16,206.936,16,184C16,91.36,91.368,16,184,16s168,75.36,168,168C352,206.936,347.44,222.16,338.048,230.56z"/>
<g>
</g>
<g>
</g>
<g>
</g>
<g>
</g>
<g>
</g>
<g>
</g>
<g>
</g>
<g>
</g>
<g>
</g>
<g>
</g>
<g>
</g>
<g>
</g>
<g>
</g>
<g>
</g>
<g>
</g>
</svg>
