<svg xmlns="http://www.w3.org/2000/svg" viewBox="19 19 106 106"><path d="M123.62 70.72l-4.4-2.72c-.03-.43-.08-.86-.12-1.28l3.77-3.53a1.5 1.5 0 0 0-.5-2.52l-4.82-1.8-.38-1.25 3-4.18a1.51 1.51 0 0 0-.98-2.38l-5.09-.83-.6-1.14 2.13-4.7a1.5 1.5 0 0 0-1.43-2.13l-5.16.18-.82-1 1.19-5.03a1.51 1.51 0 0 0-1.82-1.82l-5.03 1.19-1-.82.19-5.16a1.5 1.5 0 0 0-2.14-1.43l-4.7 2.14c-.37-.2-.75-.42-1.14-.61l-.83-5.1a1.51 1.51 0 0 0-2.37-.98l-4.19 3.01-1.24-.38-1.8-4.82a1.5 1.5 0 0 0-2.53-.5L77.3 24.9c-.43-.04-.85-.09-1.28-.12l-2.72-4.4a1.51 1.51 0 0 0-2.57 0L68 24.78c-.43.03-.86.08-1.28.12l-3.53-3.78a1.52 1.52 0 0 0-2.52.5l-1.8 4.83-1.25.38-4.18-3a1.5 1.5 0 0 0-2.38.97l-.83 5.1-1.14.6-4.7-2.13a1.5 1.5 0 0 0-2.13 1.43l.18 5.16-1 .82-5.03-1.19a1.52 1.52 0 0 0-1.82 1.82l1.19 5.04c-.28.32-.55.65-.82.99l-5.16-.18a1.51 1.51 0 0 0-1.43 2.14l2.14 4.69c-.2.38-.42.76-.61 1.14l-5.1.83a1.51 1.51 0 0 0-.98 2.38l3.01 4.18-.38 1.25-4.82 1.8a1.51 1.51 0 0 0-.5 2.52l3.77 3.53c-.04.42-.09.85-.12 1.28l-4.4 2.72a1.51 1.51 0 0 0 0 2.57l4.4 2.72.12 1.28-3.77 3.52a1.51 1.51 0 0 0 .5 2.52l4.82 1.8.38 1.25-3 4.19a1.51 1.51 0 0 0 .98 2.37l5.09.83.6 1.14-2.13 4.7a1.5 1.5 0 0 0 1.43 2.14l5.16-.18.82.99-1.19 5.03a1.5 1.5 0 0 0 1.82 1.82l5.03-1.19 1 .82-.18 5.16a1.51 1.51 0 0 0 2.13 1.43l4.7-2.14c.38.21.76.42 1.14.61l.83 5.1a1.5 1.5 0 0 0 2.38.98l4.18-3.01 1.25.37 1.8 4.83a1.5 1.5 0 0 0 2.52.5l3.53-3.78c.42.05.85.1 1.28.13l2.72 4.4a1.51 1.51 0 0 0 2.57 0l2.72-4.4 1.28-.13 3.52 3.78a1.5 1.5 0 0 0 2.52-.5l1.8-4.83 1.25-.37 4.19 3a1.51 1.51 0 0 0 2.37-.98l.83-5.09 1.14-.6 4.7 2.13a1.5 1.5 0 0 0 2.14-1.43l-.18-5.16.99-.82 5.03 1.19a1.5 1.5 0 0 0 1.82-1.82l-1.19-5.03.82-1 5.16.19a1.5 1.5 0 0 0 1.43-2.14l-2.14-4.7c.21-.37.42-.75.61-1.14l5.1-.83a1.5 1.5 0 0 0 .98-2.37l-3.01-4.19.37-1.24 4.83-1.8a1.5 1.5 0 0 0 .5-2.53l-3.77-3.52.12-1.28 4.4-2.72a1.5 1.5 0 0 0 0-2.57zM94.2 107.17a3.11 3.11 0 1 1 1.32-6.09 3.11 3.11 0 0 1-1.32 6.09zm-1.5-10.1a2.83 2.83 0 0 0-3.36 2.18l-1.56 7.28a38.1 38.1 0 0 1-15.79 3.4 38.14 38.14 0 0 1-16.12-3.55l-1.56-7.28a2.83 2.83 0 0 0-3.36-2.18l-6.43 1.38a38.13 38.13 0 0 1-3.32-3.92h31.27c.35 0 .59-.06.59-.39V82.93c0-.32-.24-.38-.6-.38h-9.14v-7.02h9.9c.9 0 4.82.26 6.08 5.28.39 1.54 1.25 6.56 1.84 8.17.6 1.8 2.98 5.4 5.54 5.4h15.58c.18 0 .37-.02.56-.06a38.4 38.4 0 0 1-3.54 4.16l-6.58-1.41zm-43.25 9.95a3.1 3.1 0 1 1-1.3-6.08 3.1 3.1 0 0 1 1.3 6.08zM37.6 58.9a3.11 3.11 0 1 1-5.7 2.52 3.11 3.11 0 0 1 5.7-2.52zm-3.65 8.64l6.7-2.97a2.84 2.84 0 0 0 1.44-3.75l-1.38-3.11h5.42v24.44H35.2a38.3 38.3 0 0 1-1.24-14.6zm29.38-2.37v-7.2h12.92c.66 0 4.7.76 4.7 3.79 0 2.5-3.1 3.4-5.64 3.4H63.33zm46.94 6.48c0 .96-.04 1.9-.1 2.84h-3.94c-.39 0-.55.26-.55.65v1.8c0 4.24-2.39 5.17-4.49 5.4-2 .23-4.2-.83-4.48-2.06-1.18-6.62-3.14-8.04-6.24-10.48 3.85-2.44 7.85-6.05 7.85-10.87 0-5.21-3.57-8.5-6-10.1a17.04 17.04 0 0 0-8.22-2.7H43.5a38.22 38.22 0 0 1 21.4-12.09l4.79 5.03a2.83 2.83 0 0 0 4 .09l5.36-5.12a38.3 38.3 0 0 1 26.2 18.65l-3.67 8.28a2.84 2.84 0 0 0 1.44 3.75l7.06 3.13c.12 1.25.19 2.52.19 3.8zM69.69 29.78a3.1 3.1 0 1 1 4.3 4.5 3.1 3.1 0 0 1-4.3-4.5zm36.38 29.28a3.1 3.1 0 1 1 5.68 2.52 3.1 3.1 0 1 1-5.68-2.52z"/></svg>
