<svg xmlns="http://www.w3.org/2000/svg" viewBox="0 0 60 60">
    <defs/>
    <g id="Layer_2" data-name="Layer 2">
        <g id="Nav">
            <path fill="#07a" d="M30 5A25 25 0 1 1 5 30 25 25 0 0 1 30 5m0-5a30 30 0 1 0 30 30A30 30 0 0 0 30 0z"
                  class="cls-2"/>
            <path fill="#07a"
                  d="M42.38 30.11l-1.27 1.27a.83.83 0 0 1-.58.25.87.87 0 0 1-.58-.25L30 21.43l-9.95 9.95a.8.8 0 0 1-1.16 0l-1.27-1.27a.79.79 0 0 1 0-1.16l11.8-11.8a.8.8 0 0 1 1.16 0l11.8 11.8a.79.79 0 0 1 0 1.16zm0 9.72l-1.27 1.27a.83.83 0 0 1-.58.25.87.87 0 0 1-.58-.25L30 31.15l-9.95 9.95a.8.8 0 0 1-1.16 0l-1.27-1.27a.79.79 0 0 1 0-1.16l11.8-11.8a.8.8 0 0 1 1.16 0l11.8 11.8a.79.79 0 0 1 0 1.16z"
                  class="cls-2"/>
        </g>
    </g>
</svg>
